<?xml version="1.0" encoding="UTF-8"?>
<svg id="Layer_2" data-name="Layer 2" xmlns="http://www.w3.org/2000/svg" viewBox="0 0 228.06 100">
  <defs>
    <style>
      .cls-1 {
        fill: #000;
      }

      .cls-1, .cls-2 {
        stroke-width: 0px;
      }

      .cls-2 {
        fill: #fff;
      }
    </style>
  </defs>
  <g>
    <path class="cls-2" d="M4.31,12.82c.14,24,.27,48,.41,72,0,1.16.02,2.33.33,3.45,1.55,5.47,8.81,6.38,14.5,6.22,62.81-1.77,125.66-1.72,188.47.16,6.04.18,13.4-.37,16.07-5.79,1.12-2.27,1.09-4.91,1.03-7.44-.48-21.65-.95-43.29-1.43-64.94-.08-3.46-.45-7.47-3.34-9.37-1.67-1.1-3.8-1.17-5.8-1.21-65.41-1.14-130.87,1.82-196.25-.51-2.98-.11-6.03-.21-8.86.74s-5.13,3.39-5.13,6.7Z"/>
    <path class="cls-1" d="M2.06,12.82c.12,21.17.24,42.33.36,63.5l.04,7.75c.01,2.28.07,4.52,1.13,6.59,1.6,3.09,4.97,4.75,8.24,5.46,4.02.87,8.12.61,12.2.5,5.23-.14,10.47-.27,15.7-.38,21.02-.46,42.05-.72,63.08-.77s42.22.1,63.33.46c10.47.18,20.94.41,31.41.68,4.72.13,9.48.49,14.2.28,3.57-.16,7.46-.71,10.49-2.74,3.67-2.45,5.06-6.32,5.14-10.61.1-5.19-.2-10.42-.31-15.61-.23-10.49-.46-20.98-.69-31.47-.12-5.33-.23-10.66-.35-15.98-.09-4.07.28-8.77-1.83-12.44-2.52-4.39-7.42-4.35-11.88-4.42-5.23-.08-10.46-.14-15.69-.18-21.09-.15-42.18.03-63.27.24s-42.01.44-63.01.38c-10.54-.03-21.08-.13-31.62-.35-5.23-.11-10.46-.24-15.68-.41-4.69-.15-9.99-.93-14.5.77-3.77,1.42-6.37,4.67-6.47,8.76-.07,2.9,4.43,2.9,4.5,0,.1-3.75,3.85-5,7.03-5.2,4.85-.3,9.81.19,14.67.33,10.12.28,20.25.45,30.37.53,20.26.17,40.51.02,60.77-.17,20.26-.19,40.52-.43,60.78-.43,10.13,0,20.26.06,30.38.21,2.22.03,4.61-.17,6.8.26,1.57.31,2.68,1.14,3.27,2.64.65,1.62.74,3.42.79,5.14.07,2.45.11,4.89.16,7.34.22,10.16.45,20.31.67,30.47.11,5.08.22,10.16.34,15.24.11,4.91.45,9.88.28,14.79-.12,3.46-1.58,6.11-4.91,7.32s-6.62,1.2-9.95,1.11c-10.14-.28-20.27-.56-30.41-.77-20.27-.42-40.55-.64-60.83-.68-20.28-.04-40.56.12-60.83.46-10.14.17-20.28.39-30.41.66-3.9.1-7.99.54-11.86-.17-2.45-.45-5.45-1.37-6.36-3.94-.73-2.08-.35-4.72-.36-6.89l-.04-7.75-.09-15c-.06-10.17-.12-20.33-.17-30.5l-.09-15c-.02-2.89-4.52-2.9-4.5,0Z"/>
  </g>
  <path class="cls-1" d="M34.41,41.76c2.7,5,4.9,10.23,6.6,15.66.17.56.64,1.15,1.26,1.26,2.14.36,3.05-1.25,3.49-3.08s.87-3.68,1.28-5.52c.84-3.74,1.63-7.5,2.36-11.27.19-.95-.27-1.94-1.26-2.21-.88-.24-2.03.3-2.21,1.26-.61,3.11-1.25,6.21-1.93,9.31-.34,1.55-.69,3.09-1.05,4.64-.17.71-.33,1.42-.5,2.14-.08.36-.17.71-.26,1.07-.23.89-.29.36.27.24h.96l-.2-.03,1.26,1.26c-1.79-5.71-4.12-11.25-6.96-16.52-1.1-2.04-4.21-.22-3.11,1.82h0Z"/>
  <path class="cls-1" d="M56.84,46.38c-2.32.37-3.96,2.48-4.61,4.61-.36,1.16-.46,2.4-.53,3.6-.04.58-.07,1.15.09,1.72.25.91.96,1.57,1.85,1.84.5.16,1.06.18,1.58.24.48.05.95.07,1.43.07,1.04-.01,2.13-.14,3.11-.51,2.35-.88,3.95-2.85,4.16-5.38.22-2.73-1.62-5.13-4.11-6.04-.89-.32-2.01.36-2.21,1.26-.23,1.01.31,1.87,1.26,2.21.32.12-.07-.05-.09-.04.06-.01.22.11.28.14.15.08.28.17.42.26.2.13-.24-.22-.07-.05.07.07.15.14.23.21.06.06.12.12.17.18.05.05.23.34.09.1s0,.01.04.07c.06.09.11.17.16.26.04.07.08.15.11.22.12.24,0-.07-.04-.09.06.02.13.4.14.47,0,.03.07.21.05.26-.03-.24-.04-.29-.02-.15,0,.07.01.13.01.2,0,.09-.06.46-.02.52-.06-.09.07-.35.01-.09-.02.09-.03.17-.06.26-.03.12-.07.41-.16.5l.08-.19c-.03.06-.06.12-.09.18-.05.1-.1.19-.16.29-.01.02-.11.2-.14.22.15-.07.18-.2.04-.05-.13.14-.26.28-.41.41-.33.29.24-.15-.13.09-.17.11-.35.21-.54.3-.4.19.28-.09-.14.05-.18.06-.36.11-.54.16-.16.04-.33.07-.5.1-.14.03-.25-.03.1,0-.12,0-.27.03-.39.04-.74.06-1.48.03-2.21-.05-.06,0-.19,0-.26-.03.33.12.25.04.11.01-.07-.01-.16-.04-.23-.05-.3-.04.1.06.2.13.13.1.22.21.29.35.03.07.07.5.07.29s0-.44.02-.66c.02-.44.05-.88.1-1.31,0-.1,0-.22.03-.31-.02.06-.06.37,0,.02.04-.25.09-.51.15-.76.05-.22.11-.45.19-.66.03-.1.07-.19.1-.29.06-.18-.14.29.03-.07.08-.17.17-.33.27-.49.04-.07.09-.14.14-.21.21-.33-.22.23.02-.03.14-.15.28-.3.43-.44.12-.12.17-.04-.08.05.09-.03.22-.15.3-.2.07-.04.14-.08.21-.12.29-.16-.25.07-.04.01.22-.06.42-.13.65-.16.93-.15,1.53-1.36,1.26-2.21-.33-1.01-1.21-1.42-2.21-1.26h0Z"/>
  <path class="cls-1" d="M72.98,45.84c-1.35.61-2.66,1.35-3.84,2.25-1.31.99-2.5,2.23-2.77,3.92s.17,3.46,1.4,4.75c1.08,1.13,2.73,1.78,4.3,1.63,1.98-.19,3.6-1.23,5.11-2.46.73-.6.67-1.93,0-2.55-.78-.72-1.76-.64-2.55,0-.08.07-.16.13-.24.2.16-.12.15-.12-.01,0-.13.09-.26.19-.39.28-.3.21-.62.4-.95.57-.09.05-.19.09-.28.14.19-.08.19-.08,0,0-.14.05-.29.1-.44.14-.09.03-.72.12-.26.08-.15.01-.3.02-.45.02-.1,0-.2,0-.31-.02.24.04.26.04.06,0-.13-.04-.26-.07-.39-.11-.19-.07-.17-.06.06.03-.08-.04-.16-.08-.24-.12-.09-.05-.27-.13-.34-.22.18.15.2.16.05.03-.07-.06-.13-.12-.19-.19-.06-.06-.12-.13-.18-.2l.12.15c-.12-.08-.21-.34-.28-.46.2.36-.02-.07-.05-.18-.02-.07-.04-.14-.05-.21-.04-.21-.04-.19,0,.05-.06-.13-.02-.37,0-.51,0-.07,0-.15.02-.22-.03.24-.03.25,0,.05.02-.05.17-.57.09-.34s.14-.25.17-.31c.05-.08.11-.17.17-.25-.12.15-.13.17-.05.08.25-.24.5-.49.75-.72.1-.08.08-.06-.07.05.08-.06.16-.12.24-.18.15-.11.31-.22.47-.32.32-.22.65-.43.99-.63.69-.41,1.41-.78,2.15-1.12.86-.39,1.13-1.7.65-2.46-.57-.89-1.54-1.06-2.46-.65h0Z"/>
  <path class="cls-1" d="M84.34,49.22c.61-.48,1.74-.91,2.46-.96.28-.02.56-.03.84,0,0,0,.36.07.19.01-.13-.05.16.17.08.07-.07-.08.11.18.13.21.11.19.21.41.29.6.91,2.22,1.19,4.72.8,7.03l3.01-.79c-.06-.05-.12-.19-.08-.06.06.2-.03-.12-.04-.09,0,.01.09.26.03.04-.03-.11-.07-.22-.09-.33-.1-.36-.17-.74-.3-1.09-.41-1.13-1.16-1.93-2.28-2.37-.84-.33-1.78-.35-2.68-.34-1.08.02-2.21.15-3.17.71s-1.59,1.5-2.01,2.52c-.34.83-.65,1.82-.63,2.73.05,1.49,1.17,2.26,2.44,2.72,1,.37,2.01.75,3.02,1.08,1.24.4,2.59.5,3.78-.11,1.11-.58,1.95-1.81,1.84-3.08-.08-.97-.77-1.8-1.8-1.8-.91,0-1.88.83-1.8,1.8.03.37.07.01.08-.09.1-.1.1-.11.01-.02-.09.08-.08.08.01,0-.17.13-.19.04.02.04-.11,0-.39,0-.43,0-.77-.08-1.7-.54-2.47-.82-.47-.17-.96-.32-1.42-.51-.28-.12-.06-.02.11.23.12.1.19.23.21.37-.01.12,0,.12.02,0,.16-.27.18-.73.28-1.03.13-.38.11-.41.38-.78-.16.22.21-.21,0-.02.06-.05.37-.21.34-.2.24-.1.43-.1.76-.12.4-.02.8-.03,1.2-.01.01,0,.58.06.26,0,.17.03.36.06.52.13-.24-.1.06.14,0,.02-.17-.3.01.11-.04-.04-.07-.19.07.23.09.27.05.17.09.34.13.51.21.85.52,1.67,1.17,2.29.9.85,2.77.6,3.01-.79.58-3.42.28-7.23-1.41-10.32-1.95-3.56-6.86-2.15-9.4-.13-.76.61-.63,1.91,0,2.55.75.75,1.78.61,2.55,0h0Z"/>
  <path class="cls-1" d="M97.24,42.55c-.1,3.91-.39,7.81-.9,11.69-.24,1.82-1.12,4.3.77,5.53,1.34.88,3.44.67,4.97.49,1.86-.22,3.56-.83,4.94-2.14,1.17-1.1,1.97-2.57,2.47-4.08.6-1.83.7-3.83.7-5.75s.05-3.91-1.35-5.38c-1.14-1.21-2.92-1.85-4.52-2.19-1.87-.4-3.91-.52-5.75.09-.92.31-1.52,1.24-1.26,2.21.25.9,1.29,1.56,2.21,1.26,1.93-.64,4.48-.26,6.24.76.96.56.81,1.59.82,2.65.01,1.45.03,2.92-.28,4.34-.49,2.27-1.75,4.21-4.17,4.61-.55.09-1.12.1-1.67.11-.36,0-.72,0-1.08,0-.05,0-.28-.04-.31-.01-.21.15-.01-.13.02.03,0,.03.43.68.4.68.02,0,.07-.43.07-.47.06-.36.11-.73.16-1.09.13-.89.24-1.78.35-2.66.43-3.54.69-7.11.78-10.68.06-2.32-3.54-2.32-3.6,0Z"/>
  <path class="cls-1" d="M112.99,41.81c-.06,3.39-.12,6.77-.18,10.16-.03,1.66-.06,3.32-.09,4.99s.42,3.06,2.12,3.7c2.68,1,6.22,1.06,8.84-.16s3.68-4.23,2.44-6.88c-.65-1.39-1.87-2.4-3.26-3.01-.77-.34-1.54-.56-2.38-.68-.36-.05-1.4,0-1.69-.23l-.36,2.83c.82-.38,1.8-.43,2.68-.62,1.06-.23,2.09-.63,2.92-1.35,1.6-1.37,2.08-3.71,1.57-5.69-1.07-4.13-6.64-7.39-10.69-5.7-.9.37-1.54,1.19-1.26,2.21.23.85,1.31,1.63,2.21,1.26,2.27-.95,5.94.86,6.32,3.44.14.93-.21,1.75-1.1,2.11-.68.28-1.46.34-2.18.48-.81.16-1.55.4-2.29.75-.98.46-1.22,2.14-.36,2.83,1.22.98,2.39.96,3.85,1.25,1.07.21,2.3.63,2.8,1.69,1.04,2.21-2.26,2.58-3.68,2.56-.79,0-1.56-.09-2.33-.26-.03,0-.93-.27-.95-.25.3-.3.37.97.39-.09.02-1.66.06-3.32.09-4.99.06-3.45.13-6.89.19-10.34.04-2.32-3.56-2.32-3.6,0h0Z"/>
  <path class="cls-1" d="M137.18,41.81c-1.11,4.69-1.71,9.51-1.75,14.34-.02,2.32,3.58,2.32,3.6,0,.05-4.52.58-8.99,1.63-13.38.22-.95-.3-1.95-1.26-2.21s-1.99.31-2.21,1.26h0Z"/>
  <path class="cls-1" d="M139.06,43l1.86.59c.29.09.57.18.86.28.11.04.22.08.33.12.12.05.09.03-.11-.05.06.03.12.06.18.09.12.06.23.14.35.21.11.07.08.05-.1-.07.05.04.1.09.14.13.26.27-.06-.03-.04-.06,0-.01.14.28.16.28-.1-.26-.12-.31-.06-.13l.03.1c.02.06.04.27.07.32-.03-.28-.04-.34-.03-.2,0,.06,0,.11,0,.17,0,.11,0,.23-.01.34-.02.35.1-.39,0-.02-.03.11-.05.22-.09.34l-.04.11c-.05.15-.05.15,0,0,.06-.14.06-.14,0,0-.02.05-.05.1-.08.15-.05.1-.11.2-.18.3-.13.2-.04.14.02-.01-.08.2-.4.43-.55.57-.09.09-.19.19-.3.26.38-.23,0-.01-.07.04-.22.15-.45.29-.68.43-.47.27-.95.51-1.44.75-.85.42-1.15,1.68-.65,2.46.56.86,1.56,1.09,2.46.65,1.22-.61,2.44-1.26,3.42-2.22,1.06-1.05,1.7-2.41,1.78-3.91.08-1.59-.7-3.07-2.03-3.92-.63-.41-1.39-.64-2.1-.87s-1.45-.46-2.17-.69c-.9-.29-2,.34-2.21,1.26-.22.98.3,1.91,1.26,2.21h0Z"/>
  <path class="cls-1" d="M152.5,47.8l1.89-.72c.55-.21,1.25-.5,1.73-.5.23,0,.07,0,.03,0-.12,0,.25.15.05,0,.1.07.18.17.27.26-.12-.13.03.04.07.09.3.46.52.96.71,1.47.94,2.54,1.3,5.23,1.62,7.89l3.54-.48c-.36-1.15-.82-2.28-1.38-3.35-.53-1.02-1.14-2.21-2.17-2.8s-2.52-.56-3.69-.49-2.35.3-3.31.97c-1.79,1.25-2.83,3.7-2.88,5.86-.03,1.28.6,2.5,1.78,3.05s2.66.59,3.94.7,2.67.22,3.98.07c1.81-.2,3.26-1.62,2.8-3.53-.23-.95-1.3-1.51-2.21-1.26-.97.27-1.48,1.27-1.26,2.21-.09-.42.03-.75.35-.98.02-.03.05-.04.07-.03,0,.01-.54.02-.65.02-.52,0-1.03,0-1.55-.02-1-.04-2-.12-2.98-.26-.25-.04-.5-.1-.75-.13s-.11-.1-.04.07c0,.02.21.31.12.33,0,0,0-.58-.02-.26.04-.41.19-.83.31-1.22.14-.46.19-.61.38-.95.33-.59.62-.82,1.28-.98.57-.14,1.52-.08,2.31-.07,0,0,.31.01.2-.02-.11-.03.04.08.07.11.28.41.53.86.76,1.3.44.84.79,1.69,1.07,2.6.27.85,1.08,1.42,1.97,1.29.8-.12,1.67-.87,1.56-1.77-.42-3.46-.86-6.93-2.29-10.15-.66-1.49-1.79-2.84-3.48-3.09-1.78-.27-3.53.67-5.15,1.28-.91.34-1.53,1.21-1.26,2.21.24.87,1.3,1.6,2.21,1.26h0Z"/>
  <path class="cls-1" d="M171.75,46.13c-1.25-.62-2.63-.46-3.69.47-.87.76-1.23,1.88-1.6,2.94-.76,2.19-2.21,5.29.54,6.76,2.2,1.17,4.96,1.63,6.96-.14.83-.74,1.51-1.76,2.11-2.7.63-1,1.06-2.11,1.12-3.29.16-2.87-2.21-4.52-4.79-4.87-.96-.13-1.93.23-2.21,1.26s.33,1.91,1.26,2.21c1.1.37,1.98,1.52,2.36,2.71.59,1.83.42,3.81.29,5.7-.04.6-.1,1.38-.44,1.79-.45.53-1.07.75-1.78.9-.85.18-1.77.18-2.63.17-.2,0-.4,0-.6-.03.25.03-.29-.07-.29-.07-.26-.08-.05.08-.25-.11.09.08.23.3.05-.02-1.11-2.03-4.22-.22-3.11,1.82,1.29,2.36,4.49,2.17,6.77,1.89,2.79-.35,5.28-1.92,5.73-4.88.74-4.84.36-11.5-5.14-13.33l-.96,3.47c.65.09,1.33.18,1.81.49.31.2.4.53.33,1.01-.1.65-.59,1.35-.99,1.93-.34.48-.8,1.32-1.38,1.54s-1.33-.13-1.87-.33c-.09-.03-.51-.2-.46-.18.05.02-.13-.18-.1-.03.14.65.23,0,.29-.17.29-.94.64-1.86.97-2.79.08-.23.35-.64.37-.86.03-.43.09.03.02-.06.06.08-.87-.26-.48-.07.87.43,1.95.23,2.46-.65.47-.8.23-2.03-.65-2.46h0Z"/>
  <path class="cls-1" d="M185.88,52.33c1.68.26,3.39.63,5.08.78.9.08,1.78-.34,2.22-1.16s.4-1.83.3-2.72c-.3-2.75-1.17-5.85-4.04-6.89s-5.9.91-7.11,3.43c-.68,1.42-.96,2.91-1.13,4.46-.16,1.39-.34,2.86-.22,4.26.17,1.95,1.19,3.47,3.04,4.19,1.74.68,3.61.28,5.35-.2.94-.26,1.52-1.28,1.26-2.21s-1.27-1.52-2.21-1.26c-.53.15-1.1.33-1.63.4-.63.09-1.02.04-1.44-.07-.2-.05-.19-.04-.45-.23.23.17-.3-.41-.15-.17-.2-.31-.19-.58-.19-1.08,0-1.14.1-2.29.22-3.41.09-.84.31-2.08.67-2.86.25-.53.46-.84.75-1.13.27-.27.52-.48,1.03-.68-.23.09.38-.09.45-.1-.3.06.18,0,.24,0,.22.02.24.01.06-.01.12.02.24.05.35.09-.23-.07.3.16.37.22-.24-.18.23.25.28.31-.19-.23.18.31.21.37.06.11.11.21.16.32-.06-.15-.05-.12.03.08.08.24.16.47.22.71.13.48.23.97.29,1.46.03.25.05.5.06.75,0,.16,0,.33,0,.49.02-.17.09-.32.21-.46l.79-.46c.12-.04.36.05.11-.03-.16-.05-.35-.05-.51-.08l-1.28-.2-2.43-.38c-.96-.15-1.94.24-2.21,1.26-.23.85.29,2.06,1.26,2.21h0Z"/>
</svg>