<?xml version="1.0" encoding="UTF-8"?>
<svg id="Layer_2" data-name="Layer 2" xmlns="http://www.w3.org/2000/svg" viewBox="0 0 100 100">
  <defs>
    <style>
      .cls-1 {
        fill: #000;
      }

      .cls-1, .cls-2 {
        stroke-width: 0px;
      }

      .cls-2 {
        fill: #fff;
      }
    </style>
  </defs>
  <g>
    <path class="cls-2" d="M4.88,12.53c-1.94,15.91-1.01,31.39-.57,47.17.24,8.81-.23,17.63.02,26.44.04,1.25.11,2.58.82,3.62,1.13,1.66,3.41,1.97,5.41,2.09,22.53,1.33,45.22-2.37,67.64.19,5.04.57,11.46,1.06,14.41-3.06,3.89-5.43,1.79-14.12,1.86-19.63.29-22.42.29-28.39.85-45.03.11-3.29.25-6.62-.46-9.83-.28-1.27-.74-2.58-1.71-3.44-.72-.64-1.64-.98-2.56-1.26-7.77-2.41-16.11-1.63-24.23-1.09-16.89,1.14-33.85,1.21-50.75.21-2.16-.13-4.36-.27-6.47.2s-4.27,1.19-4.27,3.44Z"/>
    <path class="cls-1" d="M2.63,12.53c-1.53,12.75-1.26,25.6-.85,38.41.21,6.41.39,12.82.31,19.23-.04,3.24-.09,6.49-.1,9.73,0,2.93-.32,6.22.39,9.09s3.06,4.37,5.77,4.83c2.87.49,5.87.45,8.77.51,6.46.14,12.93-.05,19.39-.3,12.81-.49,25.67-1.22,38.47-.11,4.76.41,9.93,1.51,14.6-.08,4.99-1.7,7.11-6.28,7.68-11.23.53-4.6-.38-9.19-.33-13.79.06-5.27.13-10.54.2-15.81.1-7.63.23-15.26.46-22.9.16-5.41.88-11.13-.4-16.45-.72-3.02-2.48-4.96-5.41-5.96s-6.03-1.45-9.07-1.69c-6.04-.48-12.1.15-18.13.53-6.46.41-12.93.65-19.4.74s-13.11.02-19.66-.21c-3.23-.11-6.47-.27-9.7-.46-2.91-.17-5.91-.26-8.7.73-2.43.86-4.15,2.48-4.28,5.16-.15,2.89,4.35,2.89,4.5,0,.07-1.3,3.84-1.48,4.77-1.51,2.89-.09,5.8.25,8.69.38,6.13.29,12.27.43,18.41.44s12.28-.13,18.41-.41,11.81-.83,17.73-1.03c2.76-.09,5.53-.07,8.28.2,1.32.13,2.62.34,3.91.62s2.71.52,3.84,1.16c1.99,1.13,1.91,4.75,1.98,6.73.08,2.62-.08,5.24-.16,7.86-.23,7.2-.4,14.4-.5,21.61-.13,9.11-.49,18.23.1,27.32.25,3.81.64,8.81-1.97,11.98s-7.67,2.38-11.08,2.04c-5.82-.58-11.61-1-17.47-1.06s-11.94.14-17.9.37-12.11.51-18.17.62c-3.03.05-6.05.06-9.08,0-2.59-.06-5.38.07-7.93-.42-.77-.15-1.72-.36-2.1-1.12-.52-1.03-.33-2.55-.35-3.66-.06-2.99-.05-5.99-.01-8.98.07-6.14.14-12.26-.04-18.4-.36-11.97-.91-23.95-.16-35.91.19-2.95.45-5.89.81-8.82.15-1.21-1.14-2.25-2.25-2.25-1.34,0-2.1,1.04-2.25,2.25Z"/>
  </g>
  <g>
    <path class="cls-1" d="M42.18,41.71s1.63,3.09,2.34,4.68c1.63,3.71,3.26,7.41,4.88,11.12.71-.61,1.14-1.48,1.54-2.33,1.97-4.13,3.94-8.27,5.9-12.4.12-.26.24-.58.07-.8-.14-.18-.4-.21-.62-.22-4.02-.17-6.78-.58-10.78-.06-.81.11-3.33,0-3.33,0Z"/>
    <path class="cls-1" d="M40.24,42.84c2.71,5.12,4.89,10.5,7.22,15.8.61,1.4,2.58,1.33,3.53.46s1.49-1.95,2.02-3.06c.58-1.22,1.16-2.44,1.74-3.66,1.16-2.44,2.33-4.89,3.49-7.33.7-1.48,1.64-3.23.25-4.66-1.07-1.11-2.86-.9-4.27-.98-2.36-.14-4.73-.3-7.1-.12-1.67.13-3.28.24-4.96.17-1.22-.05-2.25,1.07-2.25,2.25,0,1.26,1.03,2.2,2.25,2.25.7.03,1.41.04,2.11.04,1.19,0,2.36-.2,3.55-.26,1.41-.07,2.82-.04,4.23.04.72.04,1.44.09,2.16.13.38.02.77.05,1.15.06.2.01.4.02.6.03.36,0,.41.01.16.02l-.99-.58-.1-.14-.31-1.14c.22-.61.22-.69.03-.24-.09.19-.18.38-.27.56-.13.28-.27.56-.4.85-.31.66-.63,1.32-.94,1.97-.6,1.27-1.21,2.54-1.81,3.8s-1.21,2.54-1.81,3.8c-.51,1.06-.99,2.33-1.72,3l3.53.46c-2.33-5.3-4.51-10.68-7.22-15.8-.57-1.07-2.06-1.4-3.08-.81-1.09.64-1.38,2-.81,3.08Z"/>
  </g>
</svg>